<svg xmlns="http://www.w3.org/2000/svg" viewBox="0 0 120 100">
  <defs>
    <mask id="gap">
      <rect width="120" height="100" fill="#ffffff" />
      <path d="M 73 44 C 65 54, 59 68, 51 79 L 60 79 C 65 68, 71 56, 76 47 Z"
            fill="#000000" stroke="#000000" stroke-width="7" stroke-linejoin="round" />
    </mask>
  </defs>
  <style>
    path.stem { fill: #111111; }
    @media (prefers-color-scheme: dark) {
      path.stem { fill: #ffffff; }
    }
  </style>
  <g mask="url(#gap)">
    <path class="stem" fill="#111111" d="M 36 22 C 37 28, 45 60, 57 78 L 50 78 C 42 62, 34 38, 33 26 Z" />
    <path class="stem" fill="#111111" d="M 35 44 C 27 54, 21 68, 14 78 L 21 78 C 26 68, 32 56, 37 47 Z" />
  </g>
  <path class="stem" fill="#111111" d="M 74 22 C 75 28, 83 60, 95 78 L 88 78 C 80 62, 72 38, 71 26 Z" />
  <path class="stem" fill="#111111" d="M 73 44 C 65 54, 59 68, 52 78 L 59 78 C 64 68, 70 56, 75 47 Z" />
</svg>
